# xmcd
#
# Track frame offsets: 
#        150
#        19561
#        41630
#        60904
#        78733
#        110578
#        130485
#        151069
#        167042
#        187077
#
# Disc length: 2738 seconds
#
# Revision: 0
# Processed by: cddbd v1.5.2PL0 Copyright (c) Steve Scherf et al.
# Submitted via: ExactAudioCopyFreeDBPlugin 1.0
#
DISCID=7d0ab00a
DTITLE=Various Artist - Indonesia Menangis
DYEAR=2005
DGENRE=Pop
TTITLE0=Sherina - Indonesia Menangis
TTITLE1=Yuyun Ayunda - Tuhan Dengar Pintaku
TTITLE2=Amanda Rachel - Hanya Air Mata
TTITLE3=Amanda Rachel - Indonesia Jangan Bersedih
TTITLE4=Iwan Fals (SWAMI) - Perjalanan Waktu
TTITLE5=Bimbo - Tuhan
TTITLE6=Dewi Yull - Tafakur
TTITLE7=Dewi Yull - Hidup Adalah Kesempatan
TTITLE8=Bee Voice and Ustad Shohib - Ikhlas
TTITLE9=Netta KD and Daniel - Hikmah
EXTD=
EXTT0=
EXTT1=
EXTT2=
EXTT3=
EXTT4=
EXTT5=
EXTT6=
EXTT7=
EXTT8=
EXTT9=
PLAYORDER=
